# xmcd
#
# Track frame offsets:
#	150
#	18842
#	34910
#	55675
#	68572
#	80947
#	100920
#	116277
#	127965
#	150695
#
# Disc length: 4440 seconds
#
# Revision: 5
# Processed by: cddbd v1.5.2PL0 Copyright (c) Steve Scherf et al.
# Submitted via: audiograbber 1.83.01
#
DISCID=7611560a
DTITLE=Ben Harper - Both Sides Of The Gun [2CD] [CD 1)
DYEAR=2006
DGENRE=Rock
TTITLE0=Morning Yearning
TTITLE1=Waiting For You
TTITLE2=Picture In A Frame
TTITLE3=Never Leave Lonely Alone
TTITLE4=Sweet Nothing Serenade
TTITLE5=Reason To Mourn
TTITLE6=More Than Sorry
TTITLE7=Cryin' Won't Help You Now
TTITLE8=Happy Everafter In Your Eyes
TTITLE9=Data Track
EXTD=MARO\n
EXTT0=
EXTT1=
EXTT2=
EXTT3=
EXTT4=
EXTT5=
EXTT6=
EXTT7=
EXTT8=
EXTT9=
PLAYORDER=
